<svg xmlns="http://www.w3.org/2000/svg" xmlns:xlink="http://www.w3.org/1999/xlink" viewBox="0 0 180 130"><defs><clipPath id="clip-path"><circle cx="91.27" cy="65.54" r="49.84" fill="none"/></clipPath></defs><title>chart_timeSchedule</title><g style="isolation:isolate"><g id="圖層_1" data-name="圖層 1"><circle cx="90" cy="65" r="64" fill="#efefef"/><path d="M126.78,114.57c-1.21.87-2.45,1.71-3.71,2.49L122.4,116c1.23-.76,2.45-1.59,3.63-2.44l.12-.09.74,1Zm3.63-2.84-.81-1c1.11-.94,2.2-1.93,3.23-2.94l.88.9C132.65,109.75,131.54,110.77,130.4,111.73Zm-11.21,7.55c-1.32.69-2.67,1.34-4,1.93l-.5-1.16c1.33-.58,2.66-1.21,3.95-1.89Zm17.59-13.8-.94-.83c1-1.09,1.89-2.23,2.77-3.38l1,.76C138.71,103.21,137.76,104.37,136.78,105.48ZM111,122.83c-1.4.49-2.84.93-4.27,1.32l-.33-1.22c1.41-.38,2.81-.81,4.19-1.29Zm31.18-24.46-1.06-.69c.79-1.22,1.54-2.48,2.24-3.75l1.1.61C143.75,95.84,143,97.13,142.18,98.37Zm-39.81,26.78c-1.46.28-2.94.51-4.42.68l-.14-1.25c1.45-.17,2.9-.39,4.33-.66Zm44.1-34.6L145.32,90c.6-1.32,1.17-2.68,1.67-4l1.18.44C147.66,87.81,147.09,89.2,146.47,90.55Zm-53,35.63c-1.48.06-3,.07-4.47,0l0-1.26c1.45,0,2.92,0,4.38,0Zm56.09-44-1.21-.35c.41-1.39.76-2.82,1.07-4.24l1.23.26C150.36,79.3,150,80.76,149.58,82.18Zm-65,43.72c-1.48-.15-3-.36-4.42-.62l.22-1.24c1.43.25,2.89.46,4.33.61Zm66.88-52.45-1.25-.17c.2-1.44.35-2.91.44-4.35l1.26.08C151.8,70.49,151.65,72,151.44,73.45ZM75.78,124.34c-1.44-.37-2.88-.79-4.29-1.26l.4-1.2c1.38.46,2.79.87,4.2,1.23ZM152,64.54h-1.26c0-1.45-.08-2.92-.19-4.37l1.26-.1C151.95,61.56,152,63.06,152,64.54Zm-84.72,57c-1.37-.57-2.73-1.2-4.06-1.86l.57-1.12c1.3.65,2.63,1.27,4,1.82Zm84-65.89-1.25.19c-.22-1.43-.5-2.88-.83-4.3l1.23-.28C150.79,52.7,151.08,54.17,151.3,55.64Zm-92,61.87c-1.27-.76-2.53-1.58-3.74-2.43l.73-1c1.18.83,2.42,1.64,3.66,2.38Zm89.95-70.58-1.2.37c-.43-1.39-.92-2.78-1.45-4.13l1.17-.46C148.35,44.1,148.85,45.51,149.29,46.93ZM52.05,112.37c-1.14-.94-2.27-1.94-3.34-3l.87-.91c1.05,1,2.15,2,3.28,2.9Zm94-73.74-1.14.55c-.63-1.31-1.31-2.61-2-3.87l1.09-.63C144.68,36,145.38,37.29,146,38.62ZM45.59,106.21c-1-1.09-2-2.24-2.88-3.41l1-.78c.9,1.15,1.85,2.27,2.82,3.34Zm96-75.33-1,.7q-.58-.86-1.19-1.7c-.44-.61-.91-1.23-1.38-1.84l1-.78c.48.62,1,1.25,1.41,1.87S141.19,30.3,141.58,30.88ZM41.13,98.48l-1,.7c-.83-1.23-1.62-2.51-2.36-3.79l1.09-.63C39.54,96,40.32,97.27,41.13,98.48Zm94-73.77c-1-1.08-2-2.13-3.06-3.13l.87-.91c1.07,1,2.12,2.09,3.12,3.19ZM36.79,90.89l-1.14.54c-.64-1.34-1.24-2.71-1.78-4.1L35,86.88C35.57,88.23,36.16,89.58,36.79,90.89Zm92-72.2c-1.12-.92-2.3-1.81-3.48-2.65l.72-1c1.21.85,2.41,1.76,3.56,2.7ZM33.6,82.75l-1.2.37c-.44-1.42-.83-2.87-1.16-4.32l1.23-.28C32.79,79.94,33.17,81.36,33.6,82.75Zm88.05-69.09c-1.24-.74-2.53-1.45-3.83-2.11l.57-1.13c1.33.67,2.64,1.39,3.91,2.15Zm-90,60.56-1.25.19c-.23-1.47-.4-3-.52-4.44l1.26-.1C31.25,71.32,31.42,72.78,31.64,74.22ZM113.85,9.73c-1.34-.56-2.72-1.07-4.1-1.53l.4-1.2c1.41.47,2.82,1,4.18,1.56ZM30.94,65.5H29.68c0-1.48,0-3,.13-4.47l1.26.08C31,62.57,30.93,64,30.94,65.5ZM105.55,7c-1.41-.36-2.85-.66-4.28-.92l.22-1.24c1.46.26,2.93.57,4.37.94Zm-74,49.79-1.25-.17c.21-1.47.47-2.95.78-4.4l1.23.26C32,53.88,31.72,55.33,31.52,56.77ZM96.94,5.46c-1.44-.15-2.91-.24-4.37-.29l0-1.26c1.48,0,3,.14,4.46.29ZM33.36,48.22l-1.21-.35c.42-1.42.89-2.85,1.41-4.24l1.18.44C34.23,45.43,33.77,46.83,33.36,48.22Zm54.83-43c-1.45.06-2.92.18-4.36.35L83.68,4.3c1.47-.17,3-.29,4.46-.36ZM36.41,40l-1.15-.52c.62-1.35,1.29-2.69,2-4l1.1.61C37.68,37.4,37,38.71,36.41,40ZM79.5,6.22c-1.43.27-2.86.6-4.27,1L74.91,6c1.43-.39,2.9-.73,4.36-1ZM40.63,32.38l-1.06-.69c.81-1.24,1.67-2.47,2.57-3.65l1,.76C42.27,30,41.42,31.16,40.63,32.38ZM71.06,8.5c-1.37.48-2.74,1-4.07,1.6l-.5-1.16c1.36-.59,2.76-1.14,4.16-1.63ZM45.92,25.42,45,24.59c1-1.11,2-2.2,3.08-3.24l.88.9C47.9,23.27,46.88,24.33,45.92,25.42ZM63,12c-1.28.67-2.56,1.41-3.8,2.18l-.67-1.07c1.26-.79,2.57-1.53,3.88-2.22ZM52.17,19.31l-.81-1c1.13-1,2.31-1.88,3.52-2.76l.74,1C54.44,17.47,53.28,18.38,52.17,19.31Z" fill="#77c7c0"/><path d="M40.91,84.75A54,54,0,1,1,145.39,65.54" fill="none" stroke="#040000" stroke-miterlimit="10" stroke-width="2.02" opacity="0.14"/><path d="M144.62,74.66A54,54,0,0,1,59,108.78" fill="none" stroke="#040000" stroke-miterlimit="10" stroke-width="2.02" opacity="0.14"/><path d="M149.62,42.17,144.93,44a58.49,58.49,0,0,0-16.78-23.4,57.59,57.59,0,0,0-17.28-10A58.27,58.27,0,0,0,80.55,8a57.62,57.62,0,0,0-13.76,4.3L64.7,7.67A62.83,62.83,0,0,1,94.54,2.11,63.35,63.35,0,0,1,112.6,5.86a62.61,62.61,0,0,1,18.79,10.88,63.52,63.52,0,0,1,18.23,25.43Z" fill="#77c7c0"/><path d="M54.58,116.66A63.12,63.12,0,0,1,39,29.21l4.15,2.87A58.07,58.07,0,0,0,38,89a58.44,58.44,0,0,0,19.5,23.57Z" fill="#77c7c0"/><path d="M127.88,116.1a62.77,62.77,0,0,1-33,11.9l-.32-5a57.95,57.95,0,0,0,52.74-44.53l4.91,1.16a62.83,62.83,0,0,1-24.33,36.5Z" fill="#77c7c0"/><g clip-path="url(#clip-path)"><rect x="12.61" y="6.23" width="179.57" height="128.48" fill="#77c7c0"/><rect x="12.61" y="9.5" width="61.49" height="125.71" fill="#77c7c0" style="mix-blend-mode:multiply"/></g><text transform="translate(77.62 57.96)" font-size="21" fill="#fff" font-family="DFLiHeiStd-W7-B5pc-H, DFLiHei Std">履歷<tspan x="0" y="29">收件</tspan></text><path d="M60.92,78.5H53.07L55.8,63H49.65l.95-5.36a15.57,15.57,0,0,0,2.95-.34,8.11,8.11,0,0,0,2.56-1,7.86,7.86,0,0,0,2.07-1.87,10.73,10.73,0,0,0,1.55-2.89h6Z" fill="#fff"/></g></g></svg>