<svg xmlns="http://www.w3.org/2000/svg" xmlns:xlink="http://www.w3.org/1999/xlink" viewBox="0 0 50 50"><defs><linearGradient id="未命名漸層_10" x1="69.73" y1="33.86" x2="93.71" y2="66.22" gradientTransform="matrix(-0.94, -0.33, -0.33, 0.94, 118.31, 6.04)" gradientUnits="userSpaceOnUse"><stop offset="0" stop-color="#aac952"/><stop offset="1" stop-color="#009b75"/></linearGradient><linearGradient id="Degradado_sin_nombre_38" x1="-392.58" y1="-76.27" x2="-390.32" y2="-73.22" gradientTransform="matrix(1.3, -0.9, -0.57, -0.82, 478.33, -403.91)" gradientUnits="userSpaceOnUse"><stop offset="0" stop-color="#8fb928"/><stop offset="1" stop-color="#11883b"/></linearGradient><linearGradient id="Degradado_sin_nombre_38-2" x1="43.28" y1="45.51" x2="46.27" y2="49.54" gradientTransform="translate(-10.14 -6.14)" xlink:href="#Degradado_sin_nombre_38"/></defs><title>ico</title><g style="isolation:isolate"><g id="圖層_1" data-name="圖層 1"><path d="M47.73,21.91c3-6.87-4.33-15.56-10.15-13.73C29.48,10.74,26.75,4.66,22,5.38s-6.44,6.79-9.08,10.37S1.56,21.4,4.2,29.44c1.5,4.56,8.15,5.09,11.74,7.73s6.58,9.15,12.33,8c7.53-1.5,6.8-8.15,9.43-11.73S45.1,28,47.73,21.91Z" fill="#fdf6f1" opacity="0.8"/><path d="M5,16.49C-.9,21.14,1.45,32.25,7.44,33.38c8.34,1.57,7.88,8.22,12.41,9.83s8.88-2.94,12.9-4.86,12.68.39,14.15-7.95c.83-4.73-4.78-8.34-6.7-12.36S38.73,6.87,33.12,5.16c-7.34-2.24-9.84,4-13.86,5.89S10.15,12.39,5,16.49Z" fill="url(#未命名漸層_10)"/><path d="M15,7.89c-.4-.58-1.72-.36-2.94.48s-1.89,2-1.49,2.59,2.56,1.57,3.78.72S15.43,8.47,15,7.89Z" opacity="0.8" fill="url(#Degradado_sin_nombre_38)"/><ellipse cx="34.64" cy="41.39" rx="3.24" ry="2" transform="translate(-16.05 22.86) rotate(-30)" opacity="0.8" fill="url(#Degradado_sin_nombre_38-2)"/><g style="mix-blend-mode:multiply"><path d="M13.29,20.53a.9.9,0,0,1,.24-.65,1,1,0,0,1,1.32,0,.9.9,0,0,1,.24.65v5.64h3a1.13,1.13,0,0,1,.66.19.72.72,0,0,1,0,1.13,1.12,1.12,0,0,1-.66.19H14.35a1.21,1.21,0,0,1-.77-.23,1,1,0,0,1-.29-.83Z" fill="#21592f"/><path d="M20,20.53a.9.9,0,0,1,.24-.65,1,1,0,0,1,1.32,0,.9.9,0,0,1,.24.65v6.4a.9.9,0,0,1-.24.65,1,1,0,0,1-1.32,0,.9.9,0,0,1-.24-.65Z" fill="#21592f"/><path d="M23.45,20.68a1,1,0,0,1,.28-.81,1.25,1.25,0,0,1,.86-.25,1.19,1.19,0,0,1,.52.11.91.91,0,0,1,.38.36l3.16,5.09h0v-4.7a.85.85,0,0,1,.23-.65,1.06,1.06,0,0,1,1.28,0,.85.85,0,0,1,.23.65v6.21a1.25,1.25,0,0,1-.25.83,1,1,0,0,1-.82.29l-.37,0a.78.78,0,0,1-.26-.08.73.73,0,0,1-.19-.15,2.12,2.12,0,0,1-.17-.23l-3.13-5h0V27a.85.85,0,0,1-.23.65,1.06,1.06,0,0,1-1.28,0,.85.85,0,0,1-.23-.65Z" fill="#21592f"/><path d="M32.09,20.82a1,1,0,0,1,.29-.83,1.21,1.21,0,0,1,.77-.23h4.24a1.3,1.3,0,0,1,.65.15.77.77,0,0,1,0,1.15,1.3,1.3,0,0,1-.65.15H33.89v1.72H37a1.22,1.22,0,0,1,.6.14.75.75,0,0,1,0,1.11,1.22,1.22,0,0,1-.6.14H33.89v1.91h3.58a1.3,1.3,0,0,1,.65.15.77.77,0,0,1,0,1.16,1.3,1.3,0,0,1-.65.15H33.15a1.21,1.21,0,0,1-.77-.23,1,1,0,0,1-.29-.83Z" fill="#21592f"/></g><path d="M12.69,20a.9.9,0,0,1,.24-.65,1,1,0,0,1,1.32,0,.9.9,0,0,1,.24.65v5.64h3a1.13,1.13,0,0,1,.66.19.72.72,0,0,1,0,1.13,1.12,1.12,0,0,1-.66.19H13.75A1.21,1.21,0,0,1,13,27a1,1,0,0,1-.29-.83Z" fill="#fff"/><path d="M19.41,20a.9.9,0,0,1,.24-.65,1,1,0,0,1,1.32,0,.9.9,0,0,1,.24.65v6.4a.9.9,0,0,1-.24.65,1,1,0,0,1-1.32,0,.9.9,0,0,1-.24-.65Z" fill="#fff"/><path d="M22.85,20.18a1,1,0,0,1,.28-.81,1.25,1.25,0,0,1,.86-.25,1.19,1.19,0,0,1,.52.11.91.91,0,0,1,.38.36L28,24.69h0V20a.85.85,0,0,1,.23-.65,1.06,1.06,0,0,1,1.28,0,.85.85,0,0,1,.23.65v6.21a1.25,1.25,0,0,1-.25.83,1,1,0,0,1-.82.29l-.37,0a.78.78,0,0,1-.26-.08.73.73,0,0,1-.19-.15,2.12,2.12,0,0,1-.17-.23l-3.13-5h0v4.56a.85.85,0,0,1-.23.65,1.06,1.06,0,0,1-1.28,0,.85.85,0,0,1-.23-.65Z" fill="#fff"/><path d="M31.49,20.32a1,1,0,0,1,.29-.83,1.21,1.21,0,0,1,.77-.23h4.24a1.3,1.3,0,0,1,.65.15.77.77,0,0,1,0,1.15,1.3,1.3,0,0,1-.65.15H33.29v1.72h3.06a1.22,1.22,0,0,1,.6.14.75.75,0,0,1,0,1.11,1.22,1.22,0,0,1-.6.14H33.29v1.91h3.58a1.3,1.3,0,0,1,.65.15.77.77,0,0,1,0,1.16,1.3,1.3,0,0,1-.65.15H32.55a1.21,1.21,0,0,1-.77-.23,1,1,0,0,1-.29-.83Z" fill="#fff"/></g></g></svg>