<svg id="圖層_1" data-name="圖層 1" xmlns="http://www.w3.org/2000/svg" viewBox="0 0 30 30"><title>ico</title><path d="M12.77,14.81c-.57-.11-1-.28-.78-.91v0a1,1,0,0,1,.29.14l1.33.75A1.79,1.79,0,0,1,12.77,14.81Z" fill="#f8e0c3"/><path d="M28.12,22.52l-8.24-2.25A3,3,0,0,0,18,19l-1.25-.27-1.29,3.63,11.84,3Z" fill="#f2b185"/><path d="M11.61,21.11a3,3,0,0,1,1.49-2.23l.31.11a3.49,3.49,0,0,0-1.23,2.19l-.09.73-.57-.07Z" fill="#eea380"/><path d="M27.33,25.42l-15.8-4.08.07.87a3,3,0,0,0,2.29,3.53l3.07.66a2.81,2.81,0,0,0,1.63-.28l8,2.17Z" fill="#eea380"/><polygon points="22.77 20.2 21.74 23.98 28.25 25.69 29.26 21.97 22.77 20.2" fill="#3fa8c2"/><polygon points="20.74 27.61 27.24 29.38 28.25 25.69 21.74 23.98 20.74 27.61" fill="#0098ad"/><ellipse cx="2.94" cy="10.27" rx="3.52" ry="2.15" transform="translate(-7.68 11.41) rotate(-80.18)" fill="#fcc92c"/><polygon points="14.86 8.52 13.35 16.24 3.01 19.77 6.64 1.34 14.86 8.52" fill="#fff"/><polygon points="3.02 19.77 13.35 16.24 14.1 12.38 5.77 15.23 8.23 2.73 6.64 1.34 3.02 19.77" fill="#e5ebef"/><rect x="9.46" y="17.62" width="12.47" height="4.63" rx="1.25" ry="1.25" transform="translate(-7.81 29.49) rotate(-73.91)" fill="#1e2c4d"/><path d="M18.74,13.47a.88.88,0,0,0,.69,1h0a.88.88,0,0,0,1-.69l.18-.91a.88.88,0,0,0-.69-1h0a.88.88,0,0,0-1,.69Z" fill="#1e2c4d"/><path d="M22.2,14,22,15.08a2.84,2.84,0,0,1-3.33,2.24l-5.31-1.08.76-3.86Z" fill="#c6331f"/><path d="M14.86,8.52l5.31,1.08a2.84,2.84,0,0,1,2.24,3.33L22.2,14l-8.09-1.62Z" fill="#e94c2c"/><polygon points="6.78 0.89 2.97 20.23 2.09 20.06 5.88 0.71 6.78 0.89" fill="#e94c2c"/><polygon points="5.01 0.54 5.88 0.71 2.09 20.06 1.2 19.89 5.01 0.54" fill="#c6331f"/><path d="M16.54,19.45a1,1,0,0,1-1.2.68l-3.59-1a1,1,0,0,1-.68-1.2h0a1,1,0,0,1,1.2-.68l3.59,1a1,1,0,0,1,.68,1.2Z" fill="#eea380"/><path d="M14.3,24.7a.8.8,0,0,1-1,.55l-2.41-.75a.79.79,0,0,1-.55-1h0a.79.79,0,0,1,1-.55l2.41.75a.79.79,0,0,1,.55,1Z" fill="#eea380"/><path d="M15.38,23.17a1,1,0,0,1-1.2.68l-3.34-1a1,1,0,0,1-.68-1.2h0a1,1,0,0,1,1.2-.68l3.34,1a1,1,0,0,1,.68,1.2Z" fill="#eea380"/><path d="M16.11,21.34a1,1,0,0,1-1.2.68l-3.59-1a1,1,0,0,1-.68-1.2h0a1,1,0,0,1,1.2-.68l3.59,1a1,1,0,0,1,.68,1.2Z" fill="#eea380"/><path d="M20,20.3c0,.64-1.84,1.86-1.84,1.86a14.36,14.36,0,0,1-2.66-2.79h-.53a1.5,1.5,0,0,1-2.18.76c-.22-.11.09-.62.09-.62l1.45-2,2.62.12C17.39,17.91,19.94,19.31,20,20.3Z" fill="#f2b185"/></svg>