<svg id="圖層_1" data-name="圖層 1" xmlns="http://www.w3.org/2000/svg" viewBox="0 0 75 50"><title>ico</title><text transform="translate(2.89 14.12) rotate(5.82) scale(1 1.06)" font-size="14.62" fill="#2b455d" font-family="HelveticaLT-Black, Helvetica LT Black" letter-spacing="-0.02em">JOI<tspan x="26.74" y="0" letter-spacing="-0.07em">N </tspan><tspan x="41.59" y="0" letter-spacing="-0.02em">U</tspan><tspan x="53.48" y="0" letter-spacing="-0.01em">S!</tspan></text><polygon points="56.15 42.09 37.24 33 33.93 46.52 53.25 48.36 56.15 42.09" fill="#52b6cd"/><polygon points="37.24 33 71.22 30.65 71.9 40.48 33.93 46.52 37.24 33" fill="#397a88"/><polygon points="71.9 40.48 3.1 39.01 4.39 18.86 71.48 25.5 71.9 40.48" fill="#52b6cd"/><path d="M12.3,24l1.34.1a3.5,3.5,0,0,1-.58,1.57,1.07,1.07,0,0,1-.55.34l-.13,1,1.75.11.38-3,1.41.11-.37,3,2.28.15L17.64,29l-2.29-.13L15,31.94l.36,0c.15,0,.24-.09.27-.29l.28-2.24,1.36.07L16.91,32q-.19,1.52-1.47,1.47l-.68,0,0,.36c0,.23.08.35.32.36l2,.07-.19,1.53-2.37-.06q-1.45,0-1.25-1.6l.09-.72-.72,0,.2-1.55.72,0,.4-3.11-1.76-.1-.11.85,1,.05-.21,1.61-1,0-.39,2.95q-.21,1.62-1.58,1.58l-1.69,0L8.4,34l1.33,0q.28,0,.32-.31l.18-1.36-.29.32a.75.75,0,0,1-.59.26l-1.16,0,.21-1.49.53,0a.61.61,0,0,0,.53-.23l1.11-1.32.17-1.28-1.94-.11L9,26.83,11,27l.13-1-1.76-.12.21-1.55,2.31.17Q12.13,24.52,12.3,24Zm4,.46,1.22.09-.1.81c0,.16,0,.24.2.25l.29,0-.16,1.3-1-.07q-.71,0-.62-.81Z" fill="#fff"/><path d="M27.64,31.34l-.15,1.43-.79,0-.06.6a.58.58,0,0,1-.3.49l-1.64.6.49.23a2,2,0,0,0,.8.23l1.33,0-.14,1.33-1.93-.05a1.82,1.82,0,0,1-.81-.24l-1.66-.84-1.89.71A2.46,2.46,0,0,1,20,36l-1.82,0,.17-1.39,1.29,0a1.54,1.54,0,0,0,.62-.13L21,34.2l-1.44-.76a.42.42,0,0,1-.2-.47l.06-.54-.79,0,.18-1.48.79,0,.06-.49,1.4.07L21,31l4.45.22.05-.48,1.4.07,0,.47Zm.58-6-.14,1.42-2.52-.18-.06.53,2.34.16-.25,2.42q-.1,1-.79,1l-7.72-.4.42-3.54,2.34.16.06-.53-2.48-.18.18-1.47ZM21.6,29l.09-.76-1-.06-.09.77Zm1.34,4.6,2.25-.75a.28.28,0,0,0,.08-.12l-4.35-.18a.32.32,0,0,0,.1.08ZM24.2,27l.06-.53-1.05-.07-.06.53ZM24,29.09l.08-.76L23,28.27l-.09.76Zm2.14.13c.09,0,.13,0,.14-.1l.07-.64-1-.06-.08.75Z" fill="#fff"/><path d="M32.73,26.53l-.13,1.4-.79-.05-.1,1.07.64,0-.13,1.43-.65,0L31.14,35a1.62,1.62,0,0,1-.4,1,1,1,0,0,1-.8.32l-1.06,0L29,34.86l.61,0q.23,0,.29-.64l.15-1.55-.28.87q-.33,1-.89,1l-.48,0,.14-1.4h.07c.08,0,.15-.1.22-.3l1-3.21q.2-.75.58-.73l.1-1.07-1.26-.08.14-1.42,1.26.09.1-1,1.26.1-.09,1Zm-.33,4,5.49.3-.12,1.44-2,1.9.41.46A1.17,1.17,0,0,0,37,35l.76,0-.11,1.35-1.57,0a.87.87,0,0,1-.65-.31l-.74-.84-1,.92a.67.67,0,0,1-.52.2l-1.64,0,.13-1.34,1,0a.33.33,0,0,0,.24-.1l.81-.77-1.47-1.7,1.93.09.6.64,1.12-1-3.64-.17Zm2.89-4.62,2.43.19-.21,2.58c0,.2.05.31.2.32l.4,0L38,30.41l-1.06-.06q-.91-.05-.83-1.1l.16-1.91-1.65-.12-.17,2q-.09,1-1,1l-1-.06.13-1.39.36,0q.25,0,.27-.25l.25-2.73Z" fill="#fff"/><path d="M39.18,31l1.67.09-.28,3.73q0,.49.74.51l6.79.22L48,36.69,41.1,36.5a1.2,1.2,0,0,1-.91-.38.75.75,0,0,1-.7.34l-.74,0,.09-1.17h.21a.25.25,0,0,0,.29-.25l.21-2.69-.48,0Zm.66-4.86,1.4.11-.13,1.79L39.7,28Zm-.2,2.56,1.41.09-.13,1.76-1.42-.08Zm8.87-1.93,0,.57q0,.8-1.07.73l-4.73-.33-.45,6.35q-.07,1-1,.94l-.51,0,.09-1.16H41q.13,0,.14-.07l.53-7.22L47,27q.28,0,.29-.29Zm-.3,1.75,0,.86-2.94-.19,0,.29,3.09.19-.15,1.24L47,30.87l.05-.34-3.13-.18-.26,3.9q-.07.9-.78.89l-.68,0,.07-1.06h.28c.05,0,.08-.06.09-.17L43,29.36l1.06.07.09-1.4,1.18.08v.23Zm-3.75,4.69,1,0-.08,1.33a.53.53,0,0,1-.63.55l-.92,0,.06-1h.36c.08,0,.12-.06.13-.18ZM48,31.15,48,32l-2.15-.11V32c0,.11.08.17.27.18l1.75.09,0,.82-2-.09q-1.17-.05-1.11-.89l0-.29-.51,0,.06-.87.51,0,0-.39,1.16.07,0,.39Zm-1.61,2.16,1,0,0,.73c0,.11.05.17.18.18l.44,0-.05.94-1.07,0q-.6,0-.57-.59Z" fill="#fff"/><path d="M51.13,29.4l-.28,5.71a1.84,1.84,0,0,1-.42,1.23,1.6,1.6,0,0,1-1.31.41l.07-1.23a.61.61,0,0,0,.39-.54L50,27l8.76.68,0,1.26q0,1-1,.91ZM51.19,28l0,.46,6,.42q.25,0,.25-.07v-.36Zm.91,1.68,1.12.07-.66,1.68.7,0-.57,1.27-.18,4-1.21,0,.16-3.34h-.27l.05-1.08.35,0c.07,0,.13,0,.18-.14l.23-.53-.69,0,.05-1,.36,0s.09,0,.13-.15Zm1.66.11,1.16.07-.06.11,3.53.22,0,.81-3.9-.23-.1.2,0,.05,4,.23-.06,2.15q0,.53-.9.49L54.8,33.8l-.12.27,3.47.14,0,.81L56.66,36a.9.9,0,0,0,.43.12l1.29,0,0,.85-1.95-.05a.63.63,0,0,1-.4-.16l-.27-.22-.4.25a.61.61,0,0,1-.37.09l-1.46,0,0-.83-.85,0,0-1H53c.09,0,.18-.08.25-.26l.38-1h-.3l.1-2.43-.44,0,0-.92.35,0a.18.18,0,0,0,.18-.12Zm0,6.17.7,0a.34.34,0,0,0,.17,0l.25-.15-.68-.57-.22.45A.47.47,0,0,1,53.72,36Zm.51-.9,1.24,0,.26.19.67-.37-2.08-.08Zm.27-3,2.59.13v-.3l-2.58-.14Zm2.29,1.05c.18,0,.27,0,.27-.14v-.13l-2.59-.13V33Z" fill="#fff"/><path d="M68.67,28.47v1l-7.52-.54L61.06,33h.15s.07-.05.1-.17l.17-.85,1,.05-.34,1.43a.53.53,0,0,1-.58.47l-.48,0,0,2A1.06,1.06,0,0,1,59.76,37h-.33l0-1.21h.2c.09,0,.13-.06.14-.2L60,27.8Zm-5,.76,1.05.07a1.54,1.54,0,0,1-.29.94.8.8,0,0,1-.67.22h-.16v.39l1,.06v.93l-1-.06,0,2.17-1.16-.05,0-2.19-1.24-.07,0-1,1.24.08v-.4l-1.08-.07,0-.92,1.94.13Q63.61,29.55,63.71,29.23ZM64,34.08l1.19.05v.55l2.89.12v.89l-2.9-.1v.54l3.38.11v1L62.09,37c-.42,0-.63-.22-.62-.63l0-2.12,1.11,0,0,1.52c0,.13.07.19.21.2l1.17,0Zm-.33-2,.91,0,.1.62c0,.16.09.25.21.26h0v.9l-.48,0q-.41,0-.52-.54Zm3.7-2.6,1.11.08a1.41,1.41,0,0,1-.31.92.83.83,0,0,1-.68.22h-.17v.39l1.23.08v.91L67.31,32v.28l.87,0,.17.7c0,.16.09.24.19.24h.08v.87l-.52,0c-.27,0-.44-.18-.51-.51l-.28-1.18v1.69l-1.15-.05V32.61l-.21.93a.48.48,0,0,1-.52.43L65,34v-.89h.11s.05,0,.07-.15l.11-.74.87,0v-.28l-1.31-.07v-.93l1.31.08v-.39L65,30.55v-.9l2.05.14Q67.27,29.81,67.36,29.49Z" fill="#fff"/></svg>