<svg xmlns="http://www.w3.org/2000/svg" xmlns:xlink="http://www.w3.org/1999/xlink" viewBox="0 0 30 30"><defs><clipPath id="clip-path"><circle cx="18.47" cy="12.62" r="7.5" fill="none"/></clipPath></defs><title>ico</title><g style="isolation:isolate"><g id="圖層_1" data-name="圖層 1"><g clip-path="url(#clip-path)"><rect x="20.75" y="14.14" width="1.64" height="3.24" fill="#956134"/><g opacity="0.65" style="mix-blend-mode:multiply"><path d="M20.75,14.27V15a2.7,2.7,0,0,0,1.64,0v-.76Z" fill="#ea8668"/></g><ellipse cx="21.57" cy="10.38" rx="3.43" ry="4.25" fill="#956134"/><ellipse cx="25" cy="10.78" rx="0.73" ry="1" fill="#956134"/><ellipse cx="18.14" cy="10.78" rx="0.73" ry="1" fill="#956134"/><path d="M20.17,6.53S16.93,5.11,18,10.38h.74S18.82,7.39,20.17,6.53Z" fill="#343643"/><path d="M23.81,7.73a8.51,8.51,0,0,1,.51,2.65h.74a7.34,7.34,0,0,0,.08-2.65Z" fill="#343643"/><path d="M19.58,6.85s2.15-4.17,5.26-.39a1.18,1.18,0,0,0,1.84.18l0,0s-.27,2.95-3.53,1.83a5.07,5.07,0,0,1-1.3-.7A4.13,4.13,0,0,0,19.58,6.85Z" fill="#343643"/><path d="M18.45,18.82l-.92-2.36a2.87,2.87,0,0,0-1.29,2.36Z" fill="#138ca1"/><path d="M25.37,16.46h0a.5.5,0,0,0-.11-.07L23,15.56,22.49,15l-.81,2.42-1.13-2.19-.65.28-2.24.84a.51.51,0,0,0-.3.66L18,20.72h6.45l2.21-1.89A2.87,2.87,0,0,0,25.37,16.46Z" fill="#138ca1"/><polygon points="20.61 16.78 22.56 16.78 21.57 20.72 20.61 16.78" fill="#b5b5b6"/><polygon points="22.45 15.05 21.54 16.76 22.7 17.76 23.3 15.48 22.45 15.05" fill="#efeeef"/><polygon points="20.7 15 21.54 16.75 20.33 17.69 19.83 15.39 20.7 15" fill="#efeeef"/><path d="M17.49,7.31a2,2,0,1,1-.06-.5A2,2,0,0,1,17.49,7.31Z" fill="#c9a063"/><path d="M17.49,7.31a2,2,0,0,1-.33,1.11H13.79a2,2,0,0,1-.29-1.54,2.83,2.83,0,0,1,2-.59,4.68,4.68,0,0,1,2,.52A2,2,0,0,1,17.49,7.31Z" fill="#e94d28"/><circle cx="15.39" cy="10.25" r="3.53" fill="#c9a063"/><path d="M12,20l6.9.67.65-2.43a.51.51,0,0,0-.3-.66L17,16.69l-.53-.51-1,1.53-1.07-1.53-.49.51-2.24.84a.51.51,0,0,0-.3.66Z" fill="#e94d28"/><path d="M14.38,16.62q0,.08,0,.17a1.1,1.1,0,0,0,2.2,0q0-.09,0-.17Z" fill="#fff"/><circle cx="15.52" cy="18.7" r="0.28" fill="#cf3327"/><circle cx="15.52" cy="19.58" r="0.28" fill="#cf3327"/><path d="M16.49,14.63V17a.93.93,0,0,1-.65.89,1.49,1.49,0,0,1-.9,0,.93.93,0,0,1-.65-.89V14.63Z" fill="#f2b185"/><path d="M16.49,14.74v1.8a2,2,0,0,1-2.2,0V14.74Z" fill="#ea8668"/><path d="M18.7,11.27s0,.1,0,.14,0,.11,0,.16c-.1,2.56-1.51,4.59-3.23,4.59s-2.95-1.78-3.2-4.1h0q0-.24,0-.49c0-.05,0-.11,0-.16s0-.1,0-.14a7.13,7.13,0,0,1,.22-1.77l.15-.6h0a16.29,16.29,0,0,1,5.58,0l.22,0A10.53,10.53,0,0,1,18.7,11.27Z" fill="#f2b185"/><path d="M12.22,11.41A2.79,2.79,0,0,1,14.7,9.75c1.91-.11,3.6,0,3.71-.86.08-.65-3.16-.55-4.94-.44a1.27,1.27,0,0,0-1.21.69l-.07.18C12,9.68,11.93,11.19,12.22,11.41Z" fill="#c9a063"/><path d="M17.69,9.28a2.1,2.1,0,0,0,1,1.82s.92-.86-.38-2.41Z" fill="#c9a063"/><path d="M14.28,16.17a5.79,5.79,0,0,0-1.12,1L14,19l1-1.1A3.37,3.37,0,0,1,14.28,16.17Z" fill="#fff"/><path d="M16.49,16.17a5,5,0,0,1,1.08.95L16.82,19l-1-1.1A3.37,3.37,0,0,0,16.49,16.17Z" fill="#fff"/><path d="M12.45,20l-.92-2.36A2.87,2.87,0,0,0,10.25,20Z" fill="#e94d28"/><path d="M18.45,20.66l.92-3.07A2.87,2.87,0,0,1,20.66,20Z" fill="#e94d28"/><ellipse cx="12.52" cy="12.62" rx="1" ry="1.25" fill="#f2b185"/><ellipse cx="18.39" cy="12.62" rx="1" ry="1.25" fill="#f2b185"/></g><path d="M3.66,27.9l9.52-8.15L10.68,17,1.15,25.11A1.85,1.85,0,0,0,1,27.73l0,0A1.85,1.85,0,0,0,3.66,27.9Z" fill="#343643"/><path d="M7.48,13.1A11,11,0,1,0,18,1.64,11,11,0,0,0,7.48,13.1ZM11,12.95a7.47,7.47,0,1,1,7.78,7.14A7.47,7.47,0,0,1,11,12.95Z" fill="#afb9c2"/><path d="M7.36,19.39,1,24.9c-2.07,1.8.83,5,2.83,3.25l6.34-5.51Z" fill="#dc3714"/></g></g></svg>