<svg id="圖層_1" data-name="圖層 1" xmlns="http://www.w3.org/2000/svg" xmlns:xlink="http://www.w3.org/1999/xlink" viewBox="0 0 30 30"><defs><clipPath id="clip-path"><circle cx="15" cy="15" r="10.17" fill="none"/></clipPath></defs><title>ico</title><g clip-path="url(#clip-path)"><path d="M16.43,12.16H14.36l0-.25-6.35.25c-2.09,10.91.28,11,3.51,11l1.07,0,.29,0C16.15,23.2,18.52,23.06,16.43,12.16Z" fill="#3b2c22"/><path d="M18.95,22.38a3.65,3.65,0,0,0-1.64-3h0a.63.63,0,0,0-.14-.09l-2.85-1.07-.67-.65-1.32,1.95L11,17.57l-.62.65L7.48,19.3a.63.63,0,0,0-.14.09h0a3.65,3.65,0,0,0-1.64,3H7.26l.18,2.44,10.09.46V22.83Z" fill="#455863"/><path d="M11,18.13q0,.11,0,.21a1.4,1.4,0,0,0,2.8,0q0-.11,0-.22Z" fill="#fbd8b5"/><circle cx="12.41" cy="20.78" r="0.35" fill="#dcdddd"/><circle cx="12.41" cy="21.91" r="0.35" fill="#dcdddd"/><path d="M16.51,11.71a4.18,4.18,0,0,0-4.23-4.1V15.8A4.18,4.18,0,0,0,16.51,11.71Z" fill="#7b4e24"/><path d="M12.24,7.61A4.19,4.19,0,0,0,8,11.71a4.19,4.19,0,0,0,4.27,4.1h0V7.61Z" fill="#7b4e24"/><path d="M13.65,17.69c0,.19,0,.4.08.62h-3c0-.22.06-.43.08-.62a9.71,9.71,0,0,0,.06-1.12v0a12.13,12.13,0,0,0-.14-1.65h3c-.05.35-.08.65-.11.93A8.79,8.79,0,0,0,13.65,17.69Z" fill="#fbd8b5"/><path d="M15.37,13.83c0,2.07-1.4,3.75-3.13,3.75S9.1,15.9,9.1,13.83s.19-4.39,3.14-4.39C15.37,9.44,15.37,11.76,15.37,13.83Z" fill="#fbd8b5"/><path d="M9.67,13c.1.44,0,.84-.26.9s-.51-.26-.61-.7,0-.83.26-.89S9.57,12.56,9.67,13Z" fill="#f8c49e"/><path d="M12.46,8.49c-1.38,1.42-2.21,1.52-1.33,2a12.68,12.68,0,0,1,4,2.94c.18.22.49-2.71-.29-4S12.85,8.09,12.46,8.49Z" fill="#7b4e24"/><path d="M10.83,17.57A7.37,7.37,0,0,0,9.4,18.84l1,2.27,1.25-1.41A4.28,4.28,0,0,1,10.83,17.57Z" fill="#fff"/><path d="M13.64,17.57A6.34,6.34,0,0,1,15,18.78l-1,2.33L12.81,19.7A4.28,4.28,0,0,0,13.64,17.57Z" fill="#fff"/><path d="M12.57,9.44c0-.45-.54-.62-.88-.79a2.46,2.46,0,0,0-1-.24,2.22,2.22,0,0,0-1.5.5,5.29,5.29,0,0,0-1.29,2.63,30.83,30.83,0,0,0-.66,7c.41,1.05,1.43,1.29,2.37,1.66.25.1.86-.42.82-.6-.08-.41-1.19-4.09-1.11-5a5.82,5.82,0,0,1,.29-1.31c.07-.2.14-.39.22-.59l0-.11,0,.1a.21.21,0,0,0,.36,0c.36-.51.4-1.16.8-1.65a4.35,4.35,0,0,1,1-.94.52.52,0,0,0,.16-.05l0,0,.1-.06.05,0a.12.12,0,0,0,.09-.13A.63.63,0,0,0,12.57,9.44Z" fill="#7b4e24"/><path d="M16.62,11.54a5.22,5.22,0,0,0-1.29-2.63,2.21,2.21,0,0,0-1.5-.5,2.48,2.48,0,0,0-1,.24c-.34.18-.85.34-.87.79a.48.48,0,0,0,0,.13l.22.16a5.22,5.22,0,0,0,.73.43,5.66,5.66,0,0,1,1.49,1,2.61,2.61,0,0,1,.73,1.33c.05.34.08,1.78.11,2.09.08.9-1,4.58-1.11,5,0,.18.57.71.82.6.94-.37,2-.6,2.37-1.66A30.63,30.63,0,0,0,16.62,11.54Z" fill="#7b4e24"/><path d="M20.29,19.76h0a2,2,0,0,0-.35,0H16.09a2,2,0,0,0-.32,0h0s-2,.18-3.08,3l-.94,2.74H21.92l1.45-2.74C22.32,19.94,20.29,19.76,20.29,19.76Z" fill="#8ca135"/><polygon points="19.19 25.38 18.3 22.02 17.72 22.02 16.84 25.38 19.19 25.38" fill="#222427"/><polygon points="19.02 21.4 18.04 22.65 17.03 21.43 17.57 20.84 18.47 20.84 19.02 21.4" fill="#364355"/><path d="M16.76,19.74h0c-.48,0-.72.39-.72.87v1.67l1.81-1.17S16.76,20.54,16.76,19.74Z" fill="#bbbc47"/><path d="M19.28,19.74h0a.77.77,0,0,1,.74.87v1.67l-1.77-1.17S19.28,20.54,19.28,19.74Z" fill="#bbbc47"/><path d="M19.29,17.35v3.29a1.9,1.9,0,0,1-2.52,0V17.35Z" fill="#f2b185"/><path d="M19.29,17.47v1.88a2.28,2.28,0,0,1-2.52,0V17.47Z" fill="#ea8668"/><path d="M21.63,13.65c0,2.84-1.58,5.15-3.52,5.15-1.75,0-3.2-1.87-3.48-4.32h0a7.51,7.51,0,0,1,0-.83,7.26,7.26,0,0,1,.24-1.87l0-.14h6.49A7.24,7.24,0,0,1,21.63,13.65Z" fill="#f2b185"/><path d="M14.86,11.65A3.13,3.13,0,0,1,18,9.16a3.39,3.39,0,0,1,3.32,2.49A24.6,24.6,0,0,1,14.86,11.65Z" fill="#f2b185"/><path d="M16.48,9.51a2.17,2.17,0,0,1-.76,2.15,1.84,1.84,0,0,0-.9,1.73h-.33l.05-1.73A2.16,2.16,0,0,1,16.48,9.51Z" fill="#5c0d11"/><path d="M19.78,9.51a2.17,2.17,0,0,0,.76,2.15,1.84,1.84,0,0,1,.9,1.73h.33l-.05-1.73A2.16,2.16,0,0,0,19.78,9.51Z" fill="#5c0d11"/><path d="M20.85,10.45a9.56,9.56,0,0,1-5.84.08,1.87,1.87,0,0,1,1.66-2,8.69,8.69,0,0,1,1-.16h0a3.68,3.68,0,0,1,2.84.7l.07.06A.91.91,0,0,1,20.85,10.45Z" fill="#7e341f"/><path d="M20.85,10.45a9.56,9.56,0,0,1-5.84.08,1.87,1.87,0,0,1,1.66-2,8.69,8.69,0,0,1,1-.16s-1.38.31-1.24,1.11,3.62,1,4.06.29a.65.65,0,0,0,0-.69l.07.06A.91.91,0,0,1,20.85,10.45Z" fill="#5c0d11"/><ellipse cx="14.85" cy="14.63" rx="1.08" ry="1.36" fill="#f2b185"/><ellipse cx="21.21" cy="14.63" rx="1.08" ry="1.36" fill="#f2b185"/></g><path d="M15,25.45A10.45,10.45,0,1,1,25.45,15,10.47,10.47,0,0,1,15,25.45ZM15,5.7A9.3,9.3,0,1,0,24.3,15,9.31,9.31,0,0,0,15,5.7Z" fill="#e94c2c"/><rect x="14.4" y="5.3" width="1.2" height="1.81" fill="#e94c2c"/><rect x="14.4" y="23.01" width="1.2" height="1.81" fill="#e94c2c"/><rect x="22.95" y="14.46" width="1.81" height="1.2" fill="#e94c2c"/><rect x="5.24" y="14.46" width="1.81" height="1.2" fill="#e94c2c"/><path d="M15,29A14,14,0,1,1,29,15,14,14,0,0,1,15,29ZM15,3A12,12,0,1,0,27,15,12.05,12.05,0,0,0,15,3Z" fill="#e94c2c"/></svg>