<svg id="圖層_1" data-name="圖層 1" xmlns="http://www.w3.org/2000/svg" viewBox="0 0 30 30"><title>ico</title><circle cx="14.64" cy="15.31" r="12.24" fill="#4a566b"/><path d="M14.63,12.63a2.67,2.67,0,1,1,0,5.34" fill="#fff"/><circle cx="14.64" cy="15.31" r="9.05" fill="#fff"/><circle cx="14.63" cy="15.31" r="5.86" fill="#4a566b"/><circle cx="14.64" cy="15.31" r="2.67" fill="#fff"/><polygon points="14.74 15.31 15.35 13.06 15.95 10.82 17.05 13.01 19.24 14.11 17 14.71 14.74 15.31" fill="#e8361f"/><polygon points="24.86 2.45 22.94 4.38 23.52 6.54 25.68 7.12 27.61 5.2 25.44 4.62 24.86 2.45" fill="#e8361f"/><rect x="14.96" y="8.78" width="11.9" height="0.73" transform="translate(-0.34 17.47) rotate(-45.01)" fill="#e8361f"/><polygon points="25.44 4.62 24.86 2.45 22.94 4.38 23.41 6.13 16.88 12.66 15.95 10.82 15.35 13.06 14.74 15.31 25.44 4.62" fill="#040000" opacity="0.2"/></svg>