<svg xmlns="http://www.w3.org/2000/svg" xmlns:xlink="http://www.w3.org/1999/xlink" viewBox="0 0 30 30"><defs><clipPath id="clip-path"><circle cx="9.96" cy="12.62" r="8.19" fill="none"/></clipPath></defs><title>ico</title><g style="isolation:isolate"><g id="圖層_1" data-name="圖層 1"><path d="M11.62,19.73a10.67,10.67,0,0,0,2.22,1.33L16,19.26a8.32,8.32,0,0,0,2,.31l1.58,2.37a11.14,11.14,0,0,0,2.52-.62l.28-2.84a8.47,8.47,0,0,0,1.66-1.23l2.79.56a11.12,11.12,0,0,0,.74-1.07,11.34,11.34,0,0,0,.6-1.15l-1.81-2.2a8.37,8.37,0,0,0,.3-2l2.37-1.57a11,11,0,0,0-.63-2.51L25.65,7a8.28,8.28,0,0,0-1.23-1.66L25,2.53a11.15,11.15,0,0,0-1.07-.74,11,11,0,0,0-1.15-.6L20.56,3a8.41,8.41,0,0,0-2-.3L16.94.32a11,11,0,0,0-2.52.63l-.28,2.84A8.43,8.43,0,0,0,12.49,5L9.7,4.45A10.76,10.76,0,0,0,8.36,6.67l1.81,2.2a8.34,8.34,0,0,0-.3,2L7.49,12.49A11,11,0,0,0,8.12,15l2.83.28a8.48,8.48,0,0,0,1.23,1.66ZM15.76,17l1.35-2.26a3.78,3.78,0,0,0,3.92-1l2.25,1.36A6.37,6.37,0,0,1,15.76,17Zm8.38-3.3-2.25-1.36a3.78,3.78,0,0,0-1-3.92l1.36-2.25A6.37,6.37,0,0,1,24.14,13.67Zm-3.3-8.38L19.49,7.54a3.79,3.79,0,0,0-3.92,1L13.32,7.16A6.37,6.37,0,0,1,20.84,5.29Zm-8.38,3.3,2.25,1.36a3.78,3.78,0,0,0,1,3.92l-1.35,2.26A6.37,6.37,0,0,1,12.46,8.58Z" fill="#dc3714"/><path d="M10.12,28.74c-2.4,0-3.78-1.31-3.79-3.59l-.68-4.34A9.34,9.34,0,0,1,1,12.63a9.18,9.18,0,0,1,9-9.34,9.18,9.18,0,0,1,9,9.34,9.45,9.45,0,0,1-4.29,7.95l-.95,4.59C13.69,27.5,12.45,28.74,10.12,28.74Z" fill="#fcc92c"/><path d="M14.65,25.62c0,.3-.37.54-.81.54H6.36c-.45,0-.81-.24-.81-.54v-.39c0-.3.36-.54.81-.54h7.48c.45,0,.81.24.81.54Z" fill="#898989"/><path d="M14.7,24.15c0,.3-.37.54-.81.54H6.41c-.45,0-.81-.24-.81-.54v-.39c0-.3.36-.54.81-.54h7.48c.45,0,.81.24.81.54Z" fill="#595757"/><polygon points="6.05 25.9 8.31 29.32 9.68 29.32 8.28 25.94 6.05 25.9" fill="#3e3a39"/><polygon points="11.88 29.32 14.11 25.91 10.09 25.94 8.28 25.94 9.68 29.32 10.09 29.32 11.88 29.32" fill="#3e3a39"/><g clip-path="url(#clip-path)"><ellipse cx="10.79" cy="13.46" rx="13.16" ry="10.16" fill="#fcc92c" opacity="0.39" style="mix-blend-mode:multiply"/><path d="M12.26,16a1.82,1.82,0,0,1,1.88-1s-1.78-2.76-2.44-2.75S11.89,15.71,12.26,16Z" fill="#231815"/><path d="M16,16a1.7,1.7,0,0,0-1.81-1s1.78-2.76,2.44-2.75S16.32,15.71,16,16Z" fill="#231815"/><path d="M11.41,21.38l5.67-1.22.55-2.06a.43.43,0,0,0-.25-.56l-1.9-.71L15,16.39l-.87,1.29-.91-1.29-.41.43-1.9.71a.43.43,0,0,0-.25.56Z" fill="#036eb8"/><path d="M13.26,16.76s0,.1,0,.14a.93.93,0,0,0,1.86,0s0-.1,0-.15Z" fill="#fff"/><circle cx="14.22" cy="18.52" r="0.23" fill="#fff"/><circle cx="14.22" cy="19.27" r="0.23" fill="#fff"/><path d="M15,15.08v2a.79.79,0,0,1-.55.76,1.26,1.26,0,0,1-.76,0,.79.79,0,0,1-.55-.76v-2Z" fill="#f2b185"/><path d="M15,15.18V16.7a1.65,1.65,0,0,1-1.86,0V15.18Z" fill="#ea8668"/><path d="M16.91,12.24s0,.08,0,.12,0,.09,0,.14c-.09,2.16-1.28,3.88-2.73,3.88s-2.49-1.5-2.7-3.47h0q0-.2,0-.41s0-.09,0-.14,0-.08,0-.12a6,6,0,0,1,.19-1.5l.13-.51h0a13.77,13.77,0,0,1,4.72,0l.19,0A8.9,8.9,0,0,1,16.91,12.24Z" fill="#f2b185"/><path d="M11.48,12.43A2.36,2.36,0,0,1,13.54,11c1.61-.14,3-.06,3.11-.82.05-.55-1.5-1.88-4.39-1.13-.45.12-.55,1-.81,1.49l-.06.15C11.26,11,11.23,12.26,11.48,12.43Z" fill="#6a3906"/><path d="M15,10s1.3,2.84,2.15,3.21a3.87,3.87,0,0,0-.6-3.18Z" fill="#6a3906"/><path d="M13.17,16.39a4.9,4.9,0,0,0-.95.84l.67,1.51.83-.93A2.84,2.84,0,0,1,13.17,16.39Z" fill="#fff"/><path d="M15,16.39a4.21,4.21,0,0,1,.92.8l-.64,1.55-.83-.93A2.84,2.84,0,0,0,15,16.39Z" fill="#fff"/><path d="M11.63,19.58l-.77-2a2.42,2.42,0,0,0-1.09,2Z" fill="#036eb8"/><path d="M16.7,20.18l.77-2.59a2.42,2.42,0,0,1,1.09,2Z" fill="#e94d28"/><path d="M9.84,21.13V19.55c0-1.63-.77-3-1.72-3H4.78c-.95,0-1.72,1.32-1.72,3v1.58Z" fill="#8ca135"/><polygon points="7.3 21.35 6.7 18.58 6.2 18.58 5.72 21.35 7.3 21.35" fill="#222427"/><polygon points="7.32 18.04 6.48 19.12 5.6 18.07 6.07 17.56 6.85 17.56 7.32 18.04" fill="#364355"/><path d="M5.37,16.6h0c-.42,0-.63.34-.63.75V18.8l1.57-1S5.37,17.29,5.37,16.6Z" fill="#bbbc47"/><path d="M7.55,16.6h0a.67.67,0,0,1,.64.75V18.8l-1.54-1S7.55,17.29,7.55,16.6Z" fill="#bbbc47"/><path d="M7.56,14.53v2.85a1.65,1.65,0,0,1-2.19,0V14.53Z" fill="#f2b185"/><path d="M7.56,14.63v1.63a2,2,0,0,1-2.19,0V14.63Z" fill="#ea8668"/><path d="M9.59,11.32c0,2.47-1.37,4.46-3.05,4.46-1.52,0-2.78-1.62-3-3.74h0a6.52,6.52,0,0,1,0-.72A6.3,6.3,0,0,1,3.69,9.7l0-.12H9.35A6.28,6.28,0,0,1,9.59,11.32Z" fill="#f2b185"/><path d="M3.72,9.59A2.71,2.71,0,0,1,6.47,7.42,2.94,2.94,0,0,1,9.35,9.59,21.34,21.34,0,0,1,3.72,9.59Z" fill="#f2b185"/><path d="M5.12,7.73a1.88,1.88,0,0,1-.66,1.86,1.6,1.6,0,0,0-.78,1.5H3.4l0-1.5A1.88,1.88,0,0,1,5.12,7.73Z" fill="#5c0d11"/><path d="M8,7.73a1.88,1.88,0,0,0,.66,1.86,1.6,1.6,0,0,1,.78,1.5h.28l0-1.5A1.88,1.88,0,0,0,8,7.73Z" fill="#5c0d11"/><path d="M8.91,8.54a8.29,8.29,0,0,1-5.07.07A1.62,1.62,0,0,1,5.29,6.9a7.54,7.54,0,0,1,.91-.14h0a3.19,3.19,0,0,1,2.46.61l.06.05A.79.79,0,0,1,8.91,8.54Z" fill="#7e341f"/><path d="M8.91,8.54a8.29,8.29,0,0,1-5.07.07A1.62,1.62,0,0,1,5.29,6.9a7.54,7.54,0,0,1,.91-.14S5,7,5.12,7.72s3.14.83,3.52.25a.57.57,0,0,0,0-.6l.06.05A.79.79,0,0,1,8.91,8.54Z" fill="#5c0d11"/><path d="M4.5,16.62s-1.76.15-2.67,2.61l2.49,3.52Z" fill="#8ca135"/><path d="M8.43,16.62a6.23,6.23,0,0,1,3.44,4.2l-3.27.38Z" fill="#8ca135"/><ellipse cx="3.71" cy="12.17" rx="0.94" ry="1.18" fill="#f2b185"/><ellipse cx="9.22" cy="12.17" rx="0.94" ry="1.18" fill="#f2b185"/><path d="M13.38,13.7l.2,0Z" fill="#231815"/><path d="M12.26,9.41a9.11,9.11,0,0,0,0,6.58,4.77,4.77,0,0,1-1.34-6.63A3.28,3.28,0,0,1,14.11,8v1.1S12.65,9,12.26,9.41Z" fill="#6a3906"/><ellipse cx="11.89" cy="13.51" rx="0.7" ry="0.87" transform="translate(-3.91 4.89) rotate(-20.02)" fill="#f2b185"/><path d="M16,9.41A9.11,9.11,0,0,1,16,16a4.77,4.77,0,0,0,1.34-6.63A3.28,3.28,0,0,0,14.11,8v1.1S15.56,9,16,9.41Z" fill="#6a3906"/></g></g></g></svg>