<svg xmlns="http://www.w3.org/2000/svg" xmlns:xlink="http://www.w3.org/1999/xlink" viewBox="0 0 30 30"><defs><clipPath id="clip-path"><circle cx="6.13" cy="7.25" r="3.63" fill="none"/></clipPath><clipPath id="clip-path-2"><circle cx="11.21" cy="19.81" r="5.94" fill="none"/></clipPath></defs><title>ico</title><g style="isolation:isolate"><g id="圖層_1" data-name="圖層 1"><g clip-path="url(#clip-path)"><ellipse cx="4.8" cy="7.31" rx="0.49" ry="0.61" fill="#f2b185"/><ellipse cx="7.65" cy="7.31" rx="0.49" ry="0.61" fill="#f2b185"/><path d="M8.42,10.89H3.84c0-.13,0-.24,0-.35v0a1.18,1.18,0,0,1,.76-1l.23-.08.09,0a1.39,1.39,0,0,1,.3-.05L7,9.34a1.27,1.27,0,0,1,.47.12l.26.11a1.32,1.32,0,0,1,.43.29.92.92,0,0,1,.25.68C8.4,10.65,8.41,10.77,8.42,10.89Z" fill="#d97931"/><polygon points="6.35 10.89 6.31 10.47 6.04 10.47 6 10.89 6.35 10.89" fill="#222427"/><polygon points="6.61 10.07 6.18 10.63 5.73 10.09 5.97 9.83 6.37 9.83 6.61 10.07" fill="#364355"/><path d="M6.74,8.28V9.74a.85.85,0,0,1-1.12,0V8.28Z" fill="#f2b185"/><path d="M6.74,8.33v.92a1,1,0,0,1-1.12,0V8.33Z" fill="#ea8668"/><path d="M7.78,6.63c0,1.26-.7,2.29-1.56,2.29S4.79,8.09,4.67,7h0a3.35,3.35,0,0,1,0-.37,3.23,3.23,0,0,1,.11-.83l0-.06A1.51,1.51,0,0,1,6.18,5a1.7,1.7,0,0,1,1.48.7A3.22,3.22,0,0,1,7.78,6.63Z" fill="#f2b185"/><path d="M5.62,9.34h0c-.21,0-.32.17-.32.39v.74l.81-.52S5.62,9.69,5.62,9.34Z" fill="#e5942e"/><path d="M6.74,9.34h0a.34.34,0,0,1,.33.39v.74l-.79-.52S6.74,9.69,6.74,9.34Z" fill="#e5942e"/><path d="M7.06,5.89a1.92,1.92,0,0,1-1.31-.18c-.81-.48-1,.09-1,.09A.81.81,0,0,1,5.1,4.7a1.47,1.47,0,0,1,1-.27,2.59,2.59,0,0,1,.6.17.82.82,0,0,0,.75-.18h0a.71.71,0,0,1,.29.46A.86.86,0,0,1,7.06,5.89Z" fill="#7e341f"/><path d="M7.06,5.89a1.92,1.92,0,0,1-1.31-.18c-.81-.48-1,.09-1,.09A.81.81,0,0,1,5.1,4.7a1.47,1.47,0,0,1,1-.27s-.57.07-.51.49.79.69,1.32.54.81-.59.53-1a.71.71,0,0,1,.29.46A.86.86,0,0,1,7.06,5.89Z" fill="#5c0d11"/><path d="M4.74,5.52a.7.7,0,0,0-.23.58c.06.32.14.67.14.67h.11V6.31S5,6.17,5,5.5Z" fill="#5c0d11"/><path d="M7.62,5.52a.7.7,0,0,1,.23.58,5.77,5.77,0,0,0-.07.67H7.64l-.05-.46a.81.81,0,0,1-.14-.81Z" fill="#5c0d11"/><path d="M6,6.94a.51.51,0,0,1-.51.51l-.16,0-.08,0a.51.51,0,1,1,.69-.69l0,.08A.51.51,0,0,1,6,6.94Z" fill="#fff" opacity="0.4"/><path d="M5.81,6.56l-.72.72A.51.51,0,0,1,5,7.11l.66-.66A.51.51,0,0,1,5.81,6.56Z" fill="#fff" opacity="0.5"/><path d="M6,6.78l-.64.64-.08,0,.69-.69Z" fill="#fff" opacity="0.5"/><path d="M5.47,7.5A.56.56,0,1,1,6,6.94.56.56,0,0,1,5.47,7.5Zm0-1A.48.48,0,1,0,6,6.94.48.48,0,0,0,5.47,6.45Z" fill="#062d42"/><path d="M7.47,6.94A.51.51,0,0,1,7,7.45l-.16,0-.08,0a.51.51,0,1,1,.69-.69l0,.08A.51.51,0,0,1,7.47,6.94Z" fill="#fff" opacity="0.4"/><path d="M7.3,6.56l-.72.72a.51.51,0,0,1-.1-.16l.66-.66A.51.51,0,0,1,7.3,6.56Z" fill="#fff" opacity="0.5"/><path d="M7.45,6.78l-.64.64-.08,0,.69-.69Z" fill="#fff" opacity="0.5"/><path d="M7,7.5a.56.56,0,1,1,.56-.56A.56.56,0,0,1,7,7.5Zm0-1a.48.48,0,1,0,.48.48A.48.48,0,0,0,7,6.45Z" fill="#062d42"/><path d="M7.46,6.81s.19-.32.35-.38.13.07.13.07h0a.27.27,0,0,0-.17.09l-.24.28Z" fill="#062d42"/><path d="M5,6.81s-.19-.32-.35-.38-.13.07-.13.07h0a.27.27,0,0,1,.17.09l.24.28Z" fill="#062d42"/><path d="M6,6.91a.31.31,0,0,1,.45,0V7A.31.31,0,0,0,6,7Z" fill="#062d42"/></g><g clip-path="url(#clip-path-2)"><path d="M15,25H7.47c0-.21,0-.4,0-.58v-.05a1.92,1.92,0,0,1,1.24-1.57l.37-.13.15-.05a2.26,2.26,0,0,1,.49-.09l2.84,0a2.07,2.07,0,0,1,.76.2l.42.18a2.15,2.15,0,0,1,.71.48,1.51,1.51,0,0,1,.42,1.11C14.93,24.66,14.94,24.84,15,25Z" fill="#bdd8d7"/><polygon points="11.58 25.04 11.5 24.35 11.07 24.35 11.01 25.04 11.58 25.04" fill="#222427"/><polygon points="12 23.71 11.29 24.62 10.56 23.74 10.95 23.31 11.61 23.31 12 23.71" fill="#364355"/><path d="M12.21,20.77v2.39a1.38,1.38,0,0,1-1.83,0V20.77Z" fill="#f2b185"/><path d="M12.21,20.86v1.5a1.62,1.62,0,0,1-1.83,0V20.86Z" fill="#ea8668"/><path d="M13.91,18.09c0,2.06-1.14,3.74-2.56,3.74S9,20.47,8.83,18.69h0a5.47,5.47,0,0,1,0-.6A5.28,5.28,0,0,1,9,16.73l0-.1a2.46,2.46,0,0,1,2.3-1.15,2.77,2.77,0,0,1,2.41,1.15A5.26,5.26,0,0,1,13.91,18.09Z" fill="#f2b185"/><path d="M10.38,22.51h0c-.35,0-.53.28-.53.63v1.21l1.32-.85S10.38,23.09,10.38,22.51Z" fill="#d2eae2"/><path d="M12.21,22.51h0a.56.56,0,0,1,.54.63v1.21l-1.29-.85S12.21,23.09,12.21,22.51Z" fill="#d2eae2"/><path d="M13.71,16a2.17,2.17,0,0,0-.59-.8c-1.05-.89-2.81-.85-3.48.14A.65.65,0,0,0,9,15.11a.93.93,0,0,0,.26.51.75.75,0,0,0-.61-.16s.13.33.34.42a1.06,1.06,0,0,0-.25,1l0,1.12H9l.23-1.12s.36,0,.42-.51a2.6,2.6,0,0,0,1.42.2,1.49,1.49,0,0,0,1,.43s-.41-.3-.45-.49a3.78,3.78,0,0,0,1.47.43s-.66-.36-.73-.6a3.34,3.34,0,0,0,1,.45l.16,1.15h.27v-.74A1.41,1.41,0,0,0,13.71,16Z" fill="#222427"/><ellipse cx="8.89" cy="19.26" rx="0.79" ry="0.99" fill="#f2b185"/><ellipse cx="13.53" cy="19.26" rx="0.79" ry="0.99" fill="#f2b185"/></g><path d="M25.6,13.87c0,1.06.11,4-1.73,4s-1.73-2.92-1.73-4a1.74,1.74,0,1,1,3.46,0Z" fill="#343643"/><rect x="23.57" y="15.28" width="0.61" height="1.22" fill="#f7ba88"/><g opacity="0.65" style="mix-blend-mode:multiply"><path d="M23.57,15.33v.29a1,1,0,0,0,.61,0v-.29Z" fill="#cdc4ad"/></g><ellipse cx="23.87" cy="13.87" rx="1.29" ry="1.6" fill="#f7ba88"/><ellipse cx="25.16" cy="14.02" rx="0.27" ry="0.3" fill="#f7ba88"/><ellipse cx="22.58" cy="14.02" rx="0.27" ry="0.3" fill="#f7ba88"/><polygon points="25.33 18.11 25.33 15.86 24.35 15.79 23.86 16.27 23.48 15.79 22.42 15.86 22.42 18.11 25.33 18.11" fill="#efeeef"/><path d="M26,16.51a.82.82,0,0,0-.72-.71h-.86l-.61,2.1-.51-2.1h-.93a.82.82,0,0,0-.72.71l-.21,1.59h.87l.06-.41v.41h2.91v-.41l.06.41h.87Z" fill="#838d93"/><polygon points="24.21 15.72 23.86 16.27 23.55 15.7 23.22 15.85 23.32 16.31 23.41 16.71 23.86 16.36 23.86 16.36 24.3 16.74 24.41 16.31 24.53 15.88 24.21 15.72" fill="#c6c6c9"/><polygon points="22.67 16.06 22.99 16.65 22.63 16.84 23.87 17.97 23.87 17.64 23.4 15.74 22.67 16.06" fill="#b6bbbf"/><polygon points="25.08 16.06 24.35 15.74 23.87 17.64 23.87 17.97 25.12 16.84 24.75 16.65 25.08 16.06" fill="#b6bbbf"/><polygon points="24.21 15.62 23.86 16.27 24.3 16.64 24.53 15.79 24.21 15.62" fill="#efeeef"/><polygon points="23.55 15.6 23.86 16.26 23.41 16.62 23.22 15.75 23.55 15.6" fill="#efeeef"/><circle cx="25.23" cy="14.5" r="0.1" fill="#efeeef"/><circle cx="22.52" cy="14.5" r="0.1" fill="#efeeef"/><path d="M23.89,12.14s.32,1.58-1.5,1.58C22.39,13.72,22.52,12.19,23.89,12.14Z" fill="#343643"/><path d="M23.9,12.14s-.32,1.58,1.5,1.58C25.4,13.72,25.27,12.19,23.9,12.14Z" fill="#343643"/><path d="M28.68,18.13,29.63,16l-1-.46a4.74,4.74,0,0,0,0-1.38l1-.39-.85-2.18-1,.38a4.74,4.74,0,0,0-1-1l.46-1L25.13,9l-.46,1a4.74,4.74,0,0,0-1.39,0l-.38-1-2.18.85.39,1a4.74,4.74,0,0,0-1,1l-1-.46-.95,2.14,1.05.46a4.74,4.74,0,0,0,0,1.37l-1,.39L19,17.88l1-.4a4.74,4.74,0,0,0,.94,1l-.47,1.07,2.14.95.47-1.07a4.75,4.75,0,0,0,1.36,0l.4,1L27,19.62l-.39-1a4.74,4.74,0,0,0,1-.94Zm-6.1-.46A3.23,3.23,0,1,1,26.84,16,3.23,3.23,0,0,1,22.58,17.66Z" fill="#fcc92c"/><path d="M10.93,10.65l.95-2.14-1-.46a4.73,4.73,0,0,0,0-1.38l1-.39L11,4.1l-1,.38a4.73,4.73,0,0,0-1-1l.46-1L7.38,1.5l-.46,1a4.75,4.75,0,0,0-1.39,0l-.38-1L3,2.36l.39,1a4.73,4.73,0,0,0-1,1l-1-.46L.37,6l1.05.46a4.74,4.74,0,0,0,0,1.37l-1,.39.85,2.18,1-.4a4.74,4.74,0,0,0,.94,1l-.47,1.07L4.87,13l.47-1.07A4.75,4.75,0,0,0,6.7,12l.4,1,2.18-.85-.39-1a4.74,4.74,0,0,0,1-.94Zm-6.1-.46A3.23,3.23,0,1,1,9.09,8.54,3.23,3.23,0,0,1,4.83,10.19Z" fill="#dc3714"/><path d="M19.9,21.58V18.05H18.18a7.14,7.14,0,0,0-.79-1.92L18.53,15,16,12.5,14.9,13.63a7.14,7.14,0,0,0-1.93-.8v-1.7H9.45v1.7a7.13,7.13,0,0,0-1.93.8L6.39,12.5,3.89,15,5,16.13a7.14,7.14,0,0,0-.79,1.92H2.52v3.53H4.25a7.13,7.13,0,0,0,.8,1.9L3.89,24.64l2.49,2.49L7.55,26a7.14,7.14,0,0,0,1.89.78V28.5H13V26.75A7.14,7.14,0,0,0,14.87,26L16,27.13l2.49-2.49-1.16-1.16a7.14,7.14,0,0,0,.8-1.9ZM11.21,24.9a5.12,5.12,0,1,1,5.12-5.12A5.12,5.12,0,0,1,11.21,24.9Z" fill="#c1c1c1"/></g></g></svg>