<svg xmlns="http://www.w3.org/2000/svg" xmlns:xlink="http://www.w3.org/1999/xlink" viewBox="0 0 50 50"><defs><linearGradient id="未命名漸層_6" x1="-97.32" y1="-577.25" x2="-76.13" y2="-548.66" gradientTransform="translate(32.29 -547.81) rotate(-170.51)" gradientUnits="userSpaceOnUse"><stop offset="0" stop-color="#59bded"/><stop offset="0.16" stop-color="#56b3e6"/><stop offset="0.43" stop-color="#4f97d2"/><stop offset="0.78" stop-color="#4269b3"/><stop offset="0.99" stop-color="#3a4a9d"/></linearGradient><linearGradient id="Degradado_sin_nombre_519" x1="-158.7" y1="-256.57" x2="-155.43" y2="-256.57" gradientTransform="matrix(-0.92, 1.27, -1.17, -0.85, -434.73, 15.42)" gradientUnits="userSpaceOnUse"><stop offset="0" stop-color="#3b9fd2"/><stop offset="1" stop-color="#172c84"/></linearGradient><linearGradient id="Degradado_sin_nombre_519-2" x1="-60.93" y1="-187.8" x2="-59.18" y2="-185.45" gradientTransform="matrix(1.47, -0.98, 0.68, 1.03, 254.93, 144.03)" xlink:href="#Degradado_sin_nombre_519"/></defs><title>ico</title><g style="isolation:isolate"><g id="圖層_1" data-name="圖層 1"><path d="M34.29,43C29.2,48.73,19.84,45.14,18,41.49c-2.6-5.06-7.84-4.07-9.88-7.13C3.19,27,9.42,25.08,10.68,21.17s-1.44-11.4,6-13.77C20.91,6,25,9.81,28.9,11.06s9.3.43,11.53,4.3c2.78,4.84-1,10.28-2.3,14.19S39.08,37.67,34.29,43Z" fill="#fdf6f1" opacity="0.8"/><path d="M5.29,19.82c-1.52-7.49,7-13,11-12.17,7.54,1.59,8-3.86,11.63-3.66,8.82.48,6.63,6.62,9,10s10,5.66,7.45,13c-1.45,4.19-6.89,5.21-10.24,7.6s-5.9,7.2-10.34,6.67c-5.54-.66-7.61-7-10-10.33S6.72,26.86,5.29,19.82Z" fill="url(#未命名漸層_6)"/><path d="M9.21,37.35c-1.31-1-1.78-2.54-1-3.55a3.14,3.14,0,0,1,4.06-.59,3.14,3.14,0,0,1,.7,4C12.18,38.26,10.52,38.3,9.21,37.35Z" opacity="0.8" fill="url(#Degradado_sin_nombre_519)"/><path d="M41.51,10.58A1.79,1.79,0,0,1,40.8,13c-2.19,1.48-3.8-2.37-2.14-3.52C39.69,8.72,41.15,10,41.51,10.58Z" opacity="0.8" fill="url(#Degradado_sin_nombre_519-2)"/><g style="mix-blend-mode:multiply"><path d="M19,20.82a1,1,0,0,1,.29-.83,1.21,1.21,0,0,1,.77-.23h4a1.3,1.3,0,0,1,.65.15.77.77,0,0,1,0,1.15,1.3,1.3,0,0,1-.65.15H20.85v1.85h2.73a1.22,1.22,0,0,1,.6.14.75.75,0,0,1,0,1.11,1.22,1.22,0,0,1-.6.14H20.85v2.48a.9.9,0,0,1-.24.65,1,1,0,0,1-1.32,0,.9.9,0,0,1-.24-.65Z" fill="#1b284d"/><path d="M25.93,20.82a1,1,0,0,1,.29-.83,1.21,1.21,0,0,1,.77-.23h2.4a7.31,7.31,0,0,1,1,.07,2.88,2.88,0,0,1,.94.29,1.81,1.81,0,0,1,.69.62,1.9,1.9,0,0,1,.26,1.06,1.75,1.75,0,0,1-.27.95,1.66,1.66,0,0,1-.84.66v0a1.9,1.9,0,0,1,1,.62,2,2,0,0,1,.38,1.28,2.23,2.23,0,0,1-.24,1.07,2.11,2.11,0,0,1-.64.73,2.73,2.73,0,0,1-.93.42,4.57,4.57,0,0,1-1.11.13H27a1.21,1.21,0,0,1-.77-.23,1,1,0,0,1-.29-.83Zm1.8,2.2h1.48q1.25,0,1.25-1a.92.92,0,0,0-.11-.47.84.84,0,0,0-.29-.3,1.25,1.25,0,0,0-.42-.15,2.68,2.68,0,0,0-.49,0H27.73Zm0,3.28h1.52a3.7,3.7,0,0,0,.53,0,1.52,1.52,0,0,0,.48-.15.91.91,0,0,0,.35-.32,1,1,0,0,0,.14-.55,1,1,0,0,0-.14-.57,1,1,0,0,0-.39-.32,1.68,1.68,0,0,0-.55-.15,6,6,0,0,0-.64,0h-1.3Z" fill="#1b284d"/></g><path d="M18.44,20.32a1,1,0,0,1,.29-.83,1.21,1.21,0,0,1,.77-.23h4a1.3,1.3,0,0,1,.65.15.77.77,0,0,1,0,1.15,1.3,1.3,0,0,1-.65.15H20.25v1.85H23a1.22,1.22,0,0,1,.6.14.75.75,0,0,1,0,1.11A1.22,1.22,0,0,1,23,24H20.25v2.48a.9.9,0,0,1-.24.65,1,1,0,0,1-1.32,0,.9.9,0,0,1-.24-.65Z" fill="#fff"/><path d="M25.33,20.32a1,1,0,0,1,.29-.83,1.21,1.21,0,0,1,.77-.23h2.4a7.31,7.31,0,0,1,1,.07,2.88,2.88,0,0,1,.94.29,1.81,1.81,0,0,1,.69.62,1.9,1.9,0,0,1,.26,1.06,1.75,1.75,0,0,1-.27.95,1.66,1.66,0,0,1-.84.66v0a1.9,1.9,0,0,1,1,.62A2,2,0,0,1,32,24.84a2.23,2.23,0,0,1-.24,1.07,2.11,2.11,0,0,1-.64.73,2.73,2.73,0,0,1-.93.42,4.57,4.57,0,0,1-1.11.13H26.39a1.21,1.21,0,0,1-.77-.23,1,1,0,0,1-.29-.83Zm1.8,2.2h1.48q1.25,0,1.25-1a.92.92,0,0,0-.11-.47.84.84,0,0,0-.29-.3,1.25,1.25,0,0,0-.42-.15,2.68,2.68,0,0,0-.49,0H27.13Zm0,3.28h1.52a3.7,3.7,0,0,0,.53,0,1.52,1.52,0,0,0,.48-.15A.91.91,0,0,0,30,25.3a1,1,0,0,0,.14-.55,1,1,0,0,0-.14-.57,1,1,0,0,0-.39-.32,1.68,1.68,0,0,0-.55-.15,6,6,0,0,0-.64,0h-1.3Z" fill="#fff"/></g></g></svg>