<svg xmlns="http://www.w3.org/2000/svg" viewBox="0 0 30 30"><title>ico</title><g style="isolation:isolate"><g id="圖層_1" data-name="圖層 1"><g id="_群組_" data-name="&lt;群組&gt;"><rect x="15.01" y="2.13" width="0.24" height="6.13" fill="#414042"/></g><g id="_群組_2" data-name="&lt;群組&gt;"><polygon points="9.25 6.34 12.76 6.34 12.76 3.08 9.25 3.08 9.93 4.66 9.25 6.34" fill="#e8361f"/></g><g id="_群組_3" data-name="&lt;群組&gt;"><polygon points="11.47 5.94 12.76 6.34 12.76 4.71 11.47 5.94" fill="#040000" opacity="0.2"/></g><g id="_群組_4" data-name="&lt;群組&gt;"><rect x="11.47" y="2.68" width="3.64" height="3.26" fill="#e8361f"/></g><polygon points="17.93 10.84 16.87 12.11 15.11 10.9 15 10.96 12.93 12.11 11.9 11.05 4.83 19.43 15 19.43 17.5 19.43 25.17 19.43 17.93 10.84" fill="#b28247" style="mix-blend-mode:multiply"/><polygon points="12.93 12.11 11.9 11.05 15 7.36 15 10.96 12.93 12.11" fill="#fff"/><polygon points="15.11 10.9 15 10.96 15 7.36 17.93 10.84 16.87 12.11 15.11 10.9" fill="#e4e5e6"/><polygon points="15.11 10.9 16.87 12.11 17.93 10.84 25.17 19.43 15 19.43 15 10.96 15.11 10.9" fill="#c9a063" style="mix-blend-mode:multiply"/><path d="M9.71,25.31a2.18,2.18,0,0,0,.5-.06A4.48,4.48,0,0,0,14.34,29a4.13,4.13,0,0,0,3.51-2.17,3.73,3.73,0,0,0,1.64.38,3.67,3.67,0,0,0,3.69-3.65,3.62,3.62,0,0,0-.1-.83H7.63a2.12,2.12,0,0,0,2.09,2.6Z" fill="#c6d6de"/><path d="M14,21.65a2.16,2.16,0,0,0,.5-.06,4.48,4.48,0,0,0,4.13,3.73,4.13,4.13,0,0,0,3.51-2.17,3.74,3.74,0,0,0,1.64.38,3.67,3.67,0,0,0,3.69-3.65,3.62,3.62,0,0,0-.1-.83H12A2.12,2.12,0,0,0,14,21.65Z" fill="#a0d8ea"/><path d="M16,21.65a2.16,2.16,0,0,1-.5-.06,4.48,4.48,0,0,1-4.13,3.73,4.13,4.13,0,0,1-3.51-2.17,3.74,3.74,0,0,1-1.64.38,3.67,3.67,0,0,1-3.69-3.65,3.62,3.62,0,0,1,.1-.83H18.1A2.12,2.12,0,0,1,16,21.65Z" fill="#d3edf9"/></g></g></svg>