<svg id="圖層_1" data-name="圖層 1" xmlns="http://www.w3.org/2000/svg" viewBox="0 0 30 30"><title>ico</title><rect x="2.78" y="2" width="26" height="26" rx="1.45" ry="1.45" fill="#fff"/><rect x="1.23" y="2" width="26" height="26" rx="1.45" ry="1.45" fill="#fff"/><rect x="5.94" y="16.89" width="5.47" height="8.08" fill="#fcc92c"/><rect x="12.49" y="13.37" width="5.47" height="11.6" fill="#e94c2c"/><rect x="19.04" y="9.53" width="5.47" height="15.44" fill="#3fa8c2"/><path d="M26.72,26.68H3.59a.51.51,0,0,1-.51-.51V4.7a.51.51,0,0,1,1,0v21H26.72a.51.51,0,1,1,0,1Z" fill="#16273c"/><polygon points="6.17 13.53 5.71 13.04 11.72 7.45 15.49 10.45 21.99 4.44 22.44 4.93 15.53 11.32 11.75 8.32 6.17 13.53" fill="#c30d23"/><polygon points="22.83 5.92 23.61 3.39 21.03 3.98 22.83 5.92" fill="#c30d23"/></svg>