<svg id="圖層_1" data-name="圖層 1" xmlns="http://www.w3.org/2000/svg" viewBox="0 0 30 30"><title>ico</title><polygon points="8.98 19.37 2.96 19.37 2.96 26.9 8.98 25.39 8.98 19.37" fill="#84c4c5"/><polygon points="27.04 8.84 21.02 7.34 21.02 25.39 27.04 26.9 27.04 8.84" fill="#c9caca"/><polygon points="21.02 7.34 15 8.84 15 26.9 21.02 25.39 21.02 7.34" fill="#efefef"/><polygon points="15 8.84 8.98 7.34 8.98 25.39 15 26.9 15 8.84" fill="#c9caca"/><polygon points="8.98 7.34 2.96 8.84 2.96 26.9 8.98 25.39 8.98 7.34" fill="#efefef"/><path d="M24.41,14.59l2.63.66v-.78l-2.92-.73L21,13l-2.63.66V11.39L21,10.73l2.92.73,3.1.78v-.78l-2.63-.66V8.18L23.65,8v2.62L21,10l-2.63.66V8l-.75.19V10.8L15,11.46l-2.63-.66V8.18L11.61,8v2.62L9,10l-2.63.66V8l-.75.19V10.8L3,11.46v.78l3.1-.78L9,10.73l2.63.66v5.24L9,16l-2.63.66v-3l-.47.12L3,14.47v.78l.09,0,.66-.16,1.88-.47v2.23L3,17.48v.78L5.6,17.6v2.23L3,20.49v.78l2.63-.66v2.23L3,23.5v.78l2.63-.66v2.64L6.35,26v-2.6L9,22.77l2.63.66v2.62l.75.21V23.62l2.63.66,2.63-.66v2.64l.75-.21V23.43L21,22.77l2.92.73,3.1.78V23.5l-2.63-.66V20.61l2.63.66v-.78l-2.63-.66V17.6l2.63.66v-.78l-2.63-.66ZM11.61,22.65,9,22l-2.63.66V20.42L9,19.76l2.63.66Zm0-3L9,19l-2.63.66V17.41L9,16.75l2.63.66Zm6,3.2L15,23.5l-2.63-.66V20.61l2.63.66,2.63-.66Zm0-5.73v2.72L15,20.49l-2.63-.66V14.59l2.63.66,2.63-.66Zm0-3.3L15,14.47l-2.63-.66V11.58l2.63.66,2.63-.66Zm6,6.31v2.53L21,22l-2.63.66V17.41L21,16.75l2.63.66Zm0-3.49L21,16l-2.63.66V14.4L21,13.74l2.63.66Z" fill="#9fa0a0"/><path d="M15,5.42a3.82,3.82,0,1,0,3.82,3.82A3.82,3.82,0,0,0,15,5.42Z" fill="#fff"/><path d="M15,3.1A6.14,6.14,0,0,0,8.86,9.24c0,3.39,6.14,8.63,6.14,8.63s6.14-5.24,6.14-8.63A6.14,6.14,0,0,0,15,3.1Zm0,8.8a2.66,2.66,0,1,1,2.66-2.66A2.66,2.66,0,0,1,15,11.9Z" fill="#ea5532"/><path d="M15,5.42a3.82,3.82,0,1,0,3.82,3.82A3.82,3.82,0,0,0,15,5.42Zm0,6.48a2.66,2.66,0,1,1,2.66-2.66A2.66,2.66,0,0,1,15,11.9Z" fill="#c7000b"/></svg>