<svg id="圖層_1" data-name="圖層 1" xmlns="http://www.w3.org/2000/svg" viewBox="0 0 30 30"><title>ico</title><path d="M26.91,3.78H15a2.09,2.09,0,0,0-2.09,2.09V23.69l4.46-3.83h9.54A2.09,2.09,0,0,0,29,17.78V5.87A2.09,2.09,0,0,0,26.91,3.78Z" fill="#efefef"/><path d="M12.91,12.93a1.54,1.54,0,0,0-1.54-1.54H2.54A1.54,1.54,0,0,0,1,12.93v8.83A1.54,1.54,0,0,0,2.54,23.3h6.9l3.41,2.92V22.15a1.53,1.53,0,0,0,.06-.39Z" fill="#f6d344"/><rect x="3.34" y="14.5" width="7.51" height="1.19" rx="0.5" ry="0.5" fill="#fff"/><rect x="3.34" y="16.88" width="7.51" height="1.19" rx="0.5" ry="0.5" fill="#fff"/><path d="M7.05,20c0,.29-.21.59-.47.59H3.66c-.26,0-.47-.3-.47-.59h0c0-.29.21-.59.47-.59H6.59c.26,0,.47.3.47.59Z" fill="#fff"/><path d="M23,12.12h-.84v-.58a3.26,3.26,0,1,0-2.4,0v.58h-.84a3.14,3.14,0,0,0-3.11,3.17v2H26.1v-2A3.14,3.14,0,0,0,23,12.12Z" fill="#cc4a19"/></svg>