<svg xmlns="http://www.w3.org/2000/svg" xmlns:xlink="http://www.w3.org/1999/xlink" viewBox="0 0 50 50"><defs><linearGradient id="未命名漸層_61" x1="13.48" y1="-581.58" x2="36.26" y2="-550.83" gradientTransform="matrix(0.91, -0.43, 0.43, 0.91, 243.85, 550.94)" gradientUnits="userSpaceOnUse"><stop offset="0" stop-color="#7c5a9e"/><stop offset="0.66" stop-color="#e25377"/><stop offset="1" stop-color="#f1bd3f"/></linearGradient><linearGradient id="Degradado_sin_nombre_542" x1="-485.72" y1="-305.53" x2="-480.98" y2="-305.53" gradientTransform="matrix(0.47, 1.49, -1.6, 0.5, -233.14, 914.65)" gradientUnits="userSpaceOnUse"><stop offset="0.01" stop-color="#272657"/><stop offset="0.33" stop-color="#8c1e79"/><stop offset="0.66" stop-color="#c8194f"/><stop offset="1" stop-color="#e98e14"/></linearGradient><linearGradient id="Degradado_sin_nombre_542-2" x1="-521.54" y1="-289.9" x2="-516.79" y2="-289.9" gradientTransform="matrix(1.47, 0.54, -0.73, 2, 556.6, 877.84)" xlink:href="#Degradado_sin_nombre_542"/></defs><title>ico</title><g style="isolation:isolate"><g id="圖層_1" data-name="圖層 1"><path d="M10.76,40.85c-5.91-4.55-6.27-16.25-3.67-20,4.27-6.19,11.76.24,13.17-4.6,1.17-4,2.84-7.43,7.19-7.21s10.47-5.7,15,1.8c2.55,4.26-1.51,9.9-1.72,14.59s2.2,9.49-1.08,13.23c-4.15,4.73-9.63,2.65-14,2.43S17,45.62,10.76,40.85Z" fill="#fdf6f1" opacity="0.8"/><path d="M43.61,16.8c4.5,6.36,1.57,17.91-2,20.75-5.9,4.66-10.47-3.49-13.2.77-2.27,3.55-6.29,6.8-10.5,2.87C14.52,38,6.57,44.64,4.29,35.85c-1.29-5,4.25-9.18,5.76-13.69s.51-10,4.76-12.57c5.38-3.27,10.15.54,14.34,2.17S38.89,10.13,43.61,16.8Z" fill="url(#未命名漸層_61)"/><path d="M32,42.21c-1.4.44-2.78,0-3.07-.89A2.7,2.7,0,0,1,34,39.73C34.26,40.66,33.36,41.77,32,42.21Z" opacity="0.8" fill="url(#Degradado_sin_nombre_542)"/><path d="M9.17,20.07c-.64,1.75-1.9,2.89-2.82,2.55s-1.58-2.19-.94-3.93S7.75,16,8.67,16.3,9.81,18.33,9.17,20.07Z" opacity="0.8" fill="url(#Degradado_sin_nombre_542-2)"/><g style="mix-blend-mode:multiply"><path d="M20.22,20.53a.9.9,0,0,1,.24-.65,1,1,0,0,1,1.32,0,.9.9,0,0,1,.24.65v6.4a.9.9,0,0,1-.24.65,1,1,0,0,1-1.32,0,.9.9,0,0,1-.24-.65Z" fill="#701985"/><path d="M31,27.23a.59.59,0,0,1-.62.6.58.58,0,0,1-.54-.25,2.09,2.09,0,0,1-.23-.78,2.79,2.79,0,0,1-.95.78,3.08,3.08,0,0,1-1.41.29,4.28,4.28,0,0,1-1.78-.34,3.25,3.25,0,0,1-1.2-.9,3.55,3.55,0,0,1-.67-1.32,5.91,5.91,0,0,1-.21-1.59,4.94,4.94,0,0,1,.3-1.78,3.46,3.46,0,0,1,2.14-2.1,5,5,0,0,1,1.68-.27,4,4,0,0,1,1.32.2,3.54,3.54,0,0,1,1,.49,2.24,2.24,0,0,1,.59.62,1.18,1.18,0,0,1,.2.59.86.86,0,0,1-.08.39.69.69,0,0,1-.2.25.72.72,0,0,1-.27.13,1.35,1.35,0,0,1-.29,0,.62.62,0,0,1-.36-.09,1.13,1.13,0,0,1-.25-.23l-.23-.3a1.4,1.4,0,0,0-.3-.3,1.7,1.7,0,0,0-.47-.23,2.33,2.33,0,0,0-.72-.09,2.36,2.36,0,0,0-.87.16,1.83,1.83,0,0,0-.71.5,2.39,2.39,0,0,0-.47.87,4.22,4.22,0,0,0-.17,1.28,3.83,3.83,0,0,0,.14,1.07,2.38,2.38,0,0,0,.42.84,1.91,1.91,0,0,0,.7.54,2.33,2.33,0,0,0,1,.19,2,2,0,0,0,.69-.12,1.85,1.85,0,0,0,.58-.33,1.82,1.82,0,0,0,.42-.51,1.64,1.64,0,0,0,.2-.66H28.19a1.35,1.35,0,0,1-.29,0,.78.78,0,0,1-.26-.11.58.58,0,0,1-.19-.21.72.72,0,0,1-.07-.34.69.69,0,0,1,.18-.51.71.71,0,0,1,.52-.18H30.3a.73.73,0,0,1,.57.19.83.83,0,0,1,.17.57Z" fill="#701985"/></g><path d="M19.62,20a.9.9,0,0,1,.24-.65,1,1,0,0,1,1.32,0,.9.9,0,0,1,.24.65v6.4a.9.9,0,0,1-.24.65,1,1,0,0,1-1.32,0,.9.9,0,0,1-.24-.65Z" fill="#fff"/><path d="M30.44,26.73a.59.59,0,0,1-.62.6.58.58,0,0,1-.54-.25,2.09,2.09,0,0,1-.23-.78,2.79,2.79,0,0,1-.95.78,3.08,3.08,0,0,1-1.41.29A4.28,4.28,0,0,1,24.92,27a3.25,3.25,0,0,1-1.2-.9A3.55,3.55,0,0,1,23,24.82a5.91,5.91,0,0,1-.21-1.59,4.94,4.94,0,0,1,.3-1.78,3.46,3.46,0,0,1,2.14-2.1A5,5,0,0,1,27,19.08a4,4,0,0,1,1.32.2,3.54,3.54,0,0,1,1,.49,2.24,2.24,0,0,1,.59.62A1.18,1.18,0,0,1,30,21a.86.86,0,0,1-.08.39.69.69,0,0,1-.2.25.72.72,0,0,1-.27.13,1.35,1.35,0,0,1-.29,0,.62.62,0,0,1-.36-.09,1.13,1.13,0,0,1-.25-.23l-.23-.3a1.4,1.4,0,0,0-.3-.3,1.7,1.7,0,0,0-.47-.23,2.33,2.33,0,0,0-.72-.09,2.36,2.36,0,0,0-.87.16,1.83,1.83,0,0,0-.71.5,2.39,2.39,0,0,0-.47.87,4.22,4.22,0,0,0-.17,1.28,3.83,3.83,0,0,0,.14,1.07,2.38,2.38,0,0,0,.42.84,1.91,1.91,0,0,0,.7.54,2.33,2.33,0,0,0,1,.19,2,2,0,0,0,.69-.12,1.85,1.85,0,0,0,.58-.33,1.82,1.82,0,0,0,.42-.51,1.64,1.64,0,0,0,.2-.66H27.59a1.35,1.35,0,0,1-.29,0,.78.78,0,0,1-.26-.11.58.58,0,0,1-.19-.21.72.72,0,0,1-.07-.34.69.69,0,0,1,.18-.51.71.71,0,0,1,.52-.18H29.7a.73.73,0,0,1,.57.19.83.83,0,0,1,.17.57Z" fill="#fff"/></g></g></svg>