<?xml version="1.0" encoding="utf-8"?>
<!-- Generator: Adobe Illustrator 21.1.0, SVG Export Plug-In . SVG Version: 6.00 Build 0)  -->
<svg version="1.1" id="圖層_1" xmlns="http://www.w3.org/2000/svg" xmlns:xlink="http://www.w3.org/1999/xlink" x="0px" y="0px"
	 viewBox="0 0 512 512" style="enable-background:new 0 0 512 512;" xml:space="preserve">
<style type="text/css">
	.st0{fill:#FFFFFF;}
</style>
<path d="M256,0C114.6,0,0,114.6,0,256s114.6,256,256,256s256-114.6,256-256S397.4,0,256,0z"/>
<g>
	<path class="st0" d="M101.9,203.7v96.5h54.4c4.3,0,7.7,1.1,10,3.2c2.3,2.1,3.5,4.8,3.5,8c0,3.3-1.1,5.9-3.4,7.9c-2.3,2-5.6,3-10,3
		H91.5c-5.8,0-10.1-1.3-12.6-3.9c-2.6-2.6-3.8-6.8-3.8-12.6V203.7c0-5.4,1.2-9.5,3.7-12.2c2.4-2.7,5.7-4.1,9.6-4.1
		c4,0,7.3,1.3,9.8,4C100.6,194.2,101.9,198.2,101.9,203.7z"/>
	<path class="st0" d="M198.2,212.7c-3.4,0-6.4-1.1-8.8-3.2c-2.4-2.1-3.7-5.1-3.7-9c0-3.5,1.3-6.4,3.8-8.6c2.5-2.3,5.4-3.4,8.7-3.4
		c3.2,0,6,1,8.5,3.1c2.5,2,3.7,5,3.7,9c0,3.8-1.2,6.8-3.6,8.9C204.3,211.6,201.5,212.7,198.2,212.7z M210.4,238.2v71.4
		c0,4.9-1.2,8.7-3.5,11.2c-2.4,2.5-5.3,3.8-9,3.8c-3.6,0-6.6-1.3-8.8-3.9c-2.3-2.6-3.4-6.3-3.4-11.1v-70.6c0-4.9,1.1-8.6,3.4-11
		c2.3-2.5,5.2-3.7,8.8-3.7c3.6,0,6.6,1.2,9,3.7C209.2,230.3,210.4,233.8,210.4,238.2z"/>
	<path class="st0" d="M258.3,237.8v3c4.3-5.7,9.1-9.9,14.2-12.6c5.2-2.7,11.1-4,17.8-4c6.5,0,12.3,1.4,17.5,4.2
		c5.1,2.8,9,6.8,11.5,12c1.6,3,2.7,6.3,3.2,9.8c0.5,3.5,0.7,8,0.7,13.4v45.9c0,4.9-1.1,8.7-3.4,11.2c-2.3,2.5-5.2,3.8-8.8,3.8
		c-3.7,0-6.7-1.3-9-3.9c-2.3-2.6-3.4-6.3-3.4-11.1v-41.1c0-8.1-1.1-14.4-3.4-18.7c-2.3-4.3-6.8-6.5-13.5-6.5c-4.4,0-8.4,1.3-12,3.9
		c-3.6,2.6-6.3,6.2-8,10.8c-1.2,3.7-1.8,10.6-1.8,20.6v30.9c0,5-1.2,8.8-3.5,11.3c-2.3,2.5-5.3,3.8-9,3.8c-3.6,0-6.5-1.3-8.8-3.9
		c-2.3-2.6-3.4-6.3-3.4-11.1v-71.4c0-4.7,1-8.2,3.1-10.5c2-2.3,4.9-3.5,8.4-3.5c2.2,0,4.1,0.5,5.9,1.5c1.7,1,3.1,2.6,4.2,4.6
		C257.8,232.4,258.3,234.9,258.3,237.8z"/>
	<path class="st0" d="M416.7,280.4h-48.3c0.1,5.6,1.2,10.6,3.4,14.8c2.2,4.3,5.1,7.5,8.8,9.7c3.6,2.2,7.7,3.3,12.1,3.3
		c3,0,5.7-0.3,8.1-1c2.4-0.7,4.8-1.8,7.1-3.3c2.3-1.5,4.4-3.1,6.3-4.7c1.9-1.7,4.4-4,7.5-6.9c1.3-1.1,3.1-1.6,5.4-1.6
		c2.5,0,4.6,0.7,6.2,2.1c1.6,1.4,2.4,3.3,2.4,5.9c0,2.2-0.9,4.8-2.6,7.8c-1.7,3-4.4,5.8-7.9,8.6c-3.5,2.7-8,5-13.3,6.8
		c-5.3,1.8-11.5,2.7-18.4,2.7c-15.9,0-28.2-4.5-37-13.6c-8.8-9-13.2-21.3-13.2-36.8c0-7.3,1.1-14.1,3.3-20.3
		c2.2-6.2,5.3-11.6,9.5-16.1c4.2-4.5,9.3-7.9,15.4-10.3c6.1-2.4,12.8-3.6,20.3-3.6c9.6,0,17.9,2,24.8,6.1
		c6.9,4.1,12.1,9.3,15.5,15.8c3.4,6.5,5.2,13,5.2,19.7c0,6.2-1.8,10.2-5.3,12.1C428.1,279.5,423.1,280.4,416.7,280.4z M368.4,266.4
		h44.8c-0.6-8.4-2.9-14.8-6.8-18.9c-3.9-4.2-9.1-6.3-15.6-6.3c-6.1,0-11.2,2.1-15.1,6.4C371.6,251.8,369.2,258.1,368.4,266.4z"/>
</g>
</svg>
